<?xml version="1.0" encoding="UTF-8"?>
<svg xmlns="http://www.w3.org/2000/svg" xmlns:xlink="http://www.w3.org/1999/xlink" width="1920" height="1080" viewBox="0 0 1920 1080">
<defs>
<g>
<g id="glyph-0-0">
<path d="M 0.238281 -0.933594 L 0.238281 -2.429688 L 0.570312 -2.429688 L 0.570312 -0.78125 C 0.570312 -0.664062 0.574219 -0.582031 0.578125 -0.53125 C 0.585938 -0.480469 0.597656 -0.441406 0.613281 -0.414062 C 0.648438 -0.347656 0.699219 -0.300781 0.765625 -0.269531 C 0.832031 -0.234375 0.910156 -0.21875 1.003906 -0.21875 C 1.097656 -0.21875 1.175781 -0.234375 1.242188 -0.269531 C 1.308594 -0.300781 1.355469 -0.347656 1.394531 -0.414062 C 1.410156 -0.441406 1.421875 -0.480469 1.425781 -0.527344 C 1.433594 -0.578125 1.4375 -0.664062 1.4375 -0.78125 L 1.4375 -2.429688 L 1.765625 -2.429688 L 1.765625 -0.933594 C 1.765625 -0.683594 1.75 -0.507812 1.71875 -0.402344 C 1.6875 -0.296875 1.636719 -0.210938 1.558594 -0.144531 C 1.488281 -0.078125 1.40625 -0.03125 1.3125 0 C 1.222656 0.03125 1.117188 0.046875 1.003906 0.046875 C 0.890625 0.046875 0.785156 0.03125 0.691406 0 C 0.601562 -0.03125 0.519531 -0.078125 0.445312 -0.144531 C 0.371094 -0.210938 0.316406 -0.296875 0.285156 -0.40625 C 0.253906 -0.511719 0.238281 -0.6875 0.238281 -0.933594 Z "/>
</g>
<g id="glyph-0-1">
<path d="M 1.582031 -1.757812 L 1.582031 -1.464844 C 1.496094 -1.515625 1.410156 -1.554688 1.324219 -1.578125 C 1.238281 -1.601562 1.148438 -1.617188 1.058594 -1.617188 C 0.921875 -1.617188 0.824219 -1.59375 0.757812 -1.550781 C 0.691406 -1.507812 0.65625 -1.4375 0.65625 -1.347656 C 0.65625 -1.265625 0.679688 -1.207031 0.730469 -1.167969 C 0.78125 -1.128906 0.90625 -1.085938 1.101562 -1.050781 L 1.222656 -1.027344 C 1.371094 -1 1.484375 -0.941406 1.5625 -0.859375 C 1.636719 -0.773438 1.675781 -0.664062 1.675781 -0.527344 C 1.675781 -0.347656 1.613281 -0.207031 1.484375 -0.105469 C 1.355469 -0.00390625 1.179688 0.046875 0.949219 0.046875 C 0.859375 0.046875 0.765625 0.0390625 0.667969 0.0195312 C 0.570312 0 0.460938 -0.0273438 0.347656 -0.0664062 L 0.347656 -0.375 C 0.457031 -0.316406 0.566406 -0.273438 0.667969 -0.246094 C 0.769531 -0.21875 0.867188 -0.203125 0.957031 -0.203125 C 1.089844 -0.203125 1.191406 -0.230469 1.265625 -0.285156 C 1.335938 -0.339844 1.375 -0.414062 1.375 -0.507812 C 1.375 -0.648438 1.242188 -0.746094 0.976562 -0.796875 L 0.960938 -0.800781 L 0.847656 -0.824219 C 0.675781 -0.855469 0.550781 -0.914062 0.472656 -0.992188 C 0.394531 -1.074219 0.351562 -1.183594 0.351562 -1.320312 C 0.351562 -1.496094 0.414062 -1.628906 0.53125 -1.722656 C 0.648438 -1.820312 0.816406 -1.867188 1.035156 -1.867188 C 1.132812 -1.867188 1.226562 -1.859375 1.316406 -1.839844 C 1.40625 -1.820312 1.496094 -1.796875 1.582031 -1.757812 Z "/>
</g>
<g id="glyph-0-2">
<path d="M 1.824219 -1.0625 L 1.824219 -0.914062 L 0.527344 -0.914062 L 0.527344 -0.90625 C 0.515625 -0.65625 0.5625 -0.476562 0.667969 -0.371094 C 0.773438 -0.261719 0.917969 -0.207031 1.105469 -0.207031 C 1.203125 -0.207031 1.300781 -0.222656 1.40625 -0.253906 C 1.511719 -0.28125 1.621094 -0.328125 1.738281 -0.390625 L 1.738281 -0.09375 C 1.625 -0.046875 1.515625 -0.0117188 1.410156 0.0117188 C 1.304688 0.0351562 1.203125 0.046875 1.101562 0.046875 C 0.820312 0.046875 0.597656 -0.0390625 0.4375 -0.207031 C 0.277344 -0.378906 0.199219 -0.613281 0.199219 -0.910156 C 0.199219 -1.199219 0.277344 -1.433594 0.433594 -1.605469 C 0.589844 -1.78125 0.800781 -1.867188 1.058594 -1.867188 C 1.292969 -1.867188 1.476562 -1.789062 1.609375 -1.628906 C 1.742188 -1.472656 1.8125 -1.285156 1.824219 -1.0625 Z M 1.523438 -1.148438 C 1.511719 -1.273438 1.464844 -1.382812 1.386719 -1.476562 C 1.308594 -1.566406 1.195312 -1.613281 1.046875 -1.613281 C 0.902344 -1.613281 0.785156 -1.566406 0.691406 -1.46875 C 0.597656 -1.375 0.546875 -1.265625 0.535156 -1.148438 Z "/>
</g>
<g id="glyph-0-3">
<path d="M 1.878906 -1.445312 C 1.816406 -1.496094 1.75 -1.53125 1.683594 -1.554688 C 1.617188 -1.578125 1.546875 -1.589844 1.464844 -1.589844 C 1.277344 -1.589844 1.136719 -1.53125 1.039062 -1.414062 C 0.941406 -1.296875 0.890625 -1.128906 0.890625 -0.90625 L 0.890625 0 L 0.589844 0 L 0.589844 -1.824219 L 0.890625 -1.824219 L 0.890625 -1.464844 C 0.941406 -1.59375 1.015625 -1.695312 1.121094 -1.761719 C 1.222656 -1.832031 1.347656 -1.867188 1.488281 -1.867188 C 1.5625 -1.867188 1.632812 -1.859375 1.695312 -1.839844 C 1.757812 -1.820312 1.820312 -1.792969 1.878906 -1.753906 Z "/>
</g>
<g id="glyph-0-4">
<rect x="0" y="0" width="0" height="0" mask="url(#mask-0)"/>
</g>
<g id="glyph-0-5">
<path d="M 0.4375 -0.273438 L 0.949219 -0.273438 L 0.949219 -2.109375 L 0.339844 -1.816406 L 0.339844 -2.132812 L 0.945312 -2.421875 L 1.277344 -2.421875 L 1.277344 -0.273438 L 1.78125 -0.273438 L 1.78125 0 L 0.4375 0 Z "/>
</g>
<g id="glyph-0-6">
<path d="M 0.71875 -0.585938 L 1.226562 -0.585938 L 1.226562 -0.15625 L 0.867188 0.546875 L 0.539062 0.546875 L 0.71875 -0.15625 Z "/>
</g>
<g id="glyph-0-7">
<path d="M 1.003906 -2.464844 C 1.261719 -2.464844 1.457031 -2.359375 1.589844 -2.148438 C 1.722656 -1.9375 1.789062 -1.625 1.789062 -1.210938 C 1.789062 -0.796875 1.722656 -0.480469 1.589844 -0.269531 C 1.457031 -0.0585938 1.261719 0.046875 1.003906 0.046875 C 0.742188 0.046875 0.546875 -0.0585938 0.414062 -0.269531 C 0.28125 -0.480469 0.214844 -0.792969 0.214844 -1.210938 C 0.214844 -1.625 0.28125 -1.9375 0.414062 -2.148438 C 0.546875 -2.359375 0.742188 -2.464844 1.003906 -2.464844 Z M 1.003906 -0.214844 C 1.15625 -0.214844 1.269531 -0.296875 1.347656 -0.457031 C 1.421875 -0.621094 1.460938 -0.871094 1.460938 -1.210938 C 1.460938 -1.390625 1.449219 -1.550781 1.425781 -1.695312 L 0.652344 -0.480469 C 0.734375 -0.300781 0.851562 -0.214844 1.003906 -0.214844 Z M 1.003906 -2.207031 C 0.851562 -2.207031 0.734375 -2.125 0.660156 -1.960938 C 0.585938 -1.796875 0.546875 -1.546875 0.546875 -1.210938 C 0.546875 -1.058594 0.558594 -0.914062 0.578125 -0.78125 L 1.335938 -1.988281 C 1.253906 -2.132812 1.140625 -2.207031 1.003906 -2.207031 Z "/>
</g>
<g id="glyph-0-8">
<path d="M 1.171875 -1.917969 L 1.171875 -1.195312 L 1.894531 -1.195312 L 1.894531 -0.921875 L 1.171875 -0.921875 L 1.171875 -0.199219 L 0.898438 -0.199219 L 0.898438 -0.921875 L 0.175781 -0.921875 L 0.175781 -1.195312 L 0.898438 -1.195312 L 0.898438 -1.917969 Z "/>
</g>
</g>
<image id="source-382" x="0" y="0" width="0" height="0"/>
<mask id="mask-0">
<use xlink:href="#source-382"/>
</mask>
</defs>
<g fill="rgb(100%, 100%, 100%)" fill-opacity="1">
<use xlink:href="#glyph-0-0" x="30" y="23.09375"/>
<use xlink:href="#glyph-0-1" x="32" y="23.09375"/>
<use xlink:href="#glyph-0-2" x="34" y="23.09375"/>
<use xlink:href="#glyph-0-3" x="36" y="23.09375"/>
<use xlink:href="#glyph-0-1" x="38" y="23.09375"/>
<use xlink:href="#glyph-0-4" x="40" y="23.09375"/>
<use xlink:href="#glyph-0-4" x="42" y="23.09375"/>
<use xlink:href="#glyph-0-4" x="44" y="23.09375"/>
<use xlink:href="#glyph-0-4" x="46" y="23.09375"/>
<use xlink:href="#glyph-0-4" x="48" y="23.09375"/>
<use xlink:href="#glyph-0-4" x="50" y="23.09375"/>
<use xlink:href="#glyph-0-4" x="52" y="23.09375"/>
<use xlink:href="#glyph-0-4" x="54" y="23.09375"/>
<use xlink:href="#glyph-0-5" x="56" y="23.09375"/>
<use xlink:href="#glyph-0-4" x="58" y="23.09375"/>
<use xlink:href="#glyph-0-4" x="60" y="23.09375"/>
<use xlink:href="#glyph-0-4" x="62" y="23.09375"/>
<use xlink:href="#glyph-0-4" x="64" y="23.09375"/>
<use xlink:href="#glyph-0-4" x="66" y="23.09375"/>
<use xlink:href="#glyph-0-4" x="68" y="23.09375"/>
<use xlink:href="#glyph-0-4" x="70" y="23.09375"/>
<use xlink:href="#glyph-0-4" x="72" y="23.09375"/>
<use xlink:href="#glyph-0-4" x="74" y="23.09375"/>
<use xlink:href="#glyph-0-4" x="76" y="23.09375"/>
<use xlink:href="#glyph-0-4" x="78" y="23.09375"/>
<use xlink:href="#glyph-0-4" x="80" y="23.09375"/>
<use xlink:href="#glyph-0-4" x="82" y="23.09375"/>
<use xlink:href="#glyph-0-4" x="84" y="23.09375"/>
<use xlink:href="#glyph-0-4" x="86" y="23.09375"/>
<use xlink:href="#glyph-0-5" x="88" y="23.09375"/>
<use xlink:href="#glyph-0-6" x="90" y="23.09375"/>
<use xlink:href="#glyph-0-7" x="92" y="23.09375"/>
<use xlink:href="#glyph-0-7" x="94" y="23.09375"/>
<use xlink:href="#glyph-0-7" x="96" y="23.09375"/>
<use xlink:href="#glyph-0-8" x="98" y="23.09375"/>
</g>
</svg>
